<mxfile host="app.diagrams.net" modified="2023-09-01T02:28:05.915Z" agent="Mozilla/5.0 (Windows NT 10.0; Win64; x64) AppleWebKit/537.36 (KHTML, like Gecko) Chrome/116.0.0.0 Safari/537.36" version="21.7.0" etag="6fBqClgz4Mvq3nrExzJ9" type="github">
  <diagram name="PÃ¡gina-1" id="Lnx9g0rKt34i8XlAwBLi">
    <mxGraphModel>
      <root>
        <mxCell id="0" />
        <mxCell id="1" parent="0" />
      </root>
    </mxGraphModel>
  </diagram>
</mxfile>
